HIERARCHY
ROOT Hips
{
    OFFSET 0.000000 0.000000 0.000000
    CHANNELS 6 Xposition Yposition Zposition Zrotation Xrotation Yrotation
    JOINT Spine
    {
        OFFSET -0.000000 14.517291 0.000000
        CHANNELS 3 Zrotation Xrotation Yrotation
        JOINT Spine1
        {
            OFFSET -0.000000 37.558300 0.000000
            CHANNELS 3 Zrotation Xrotation Yrotation
            JOINT Neck
            {
                OFFSET -0.000000 37.404057 3.400369
                CHANNELS 3 Zrotation Xrotation Yrotation
                JOINT Head
                {
                    OFFSET -0.000000 24.785618 -3.540803
                    CHANNELS 3 Zrotation Xrotation Yrotation
                    End Site
                    {
                        OFFSET -0.000000 35.408028 0.000000
                    }
                }
            }
            JOINT LeftShoulder
            {
                OFFSET 6.992933 33.973492 -0.192664
                CHANNELS 3 Zrotation Xrotation Yrotation
                JOINT LeftArm
                {
                    OFFSET 21.527611 0.000000 0.000000
                    CHANNELS 3 Zrotation Xrotation Yrotation
                    JOINT LeftForeArm
                    {
                        OFFSET 56.353916 0.000000 0.000000
                        CHANNELS 3 Zrotation Xrotation Yrotation
                        JOINT LeftHand
                        {
                            OFFSET 47.774071 0.000000 0.000000
                            CHANNELS 3 Zrotation Xrotation Yrotation
                            End Site
                            {
                                OFFSET 26.556021 0.000000 0.000000
                            }
                        }
                    }
                }
            }
            JOINT RightShoulder
            {
                OFFSET -7.065357 33.973492 -0.192664
                CHANNELS 3 Zrotation Xrotation Yrotation
                JOINT RightArm
                {
                    OFFSET -21.527611 0.000000 0.000000
                    CHANNELS 3 Zrotation Xrotation Yrotation
                    JOINT RightForeArm
                    {
                        OFFSET -56.353916 0.000000 0.000000
                        CHANNELS 3 Zrotation Xrotation Yrotation
                        JOINT RightHand
                        {
                            OFFSET -47.774071 0.000000 0.000000
                            CHANNELS 3 Zrotation Xrotation Yrotation
                            End Site
                            {
                                OFFSET -26.556021 0.000000 0.000000
                            }
                        }
                    }
                }
            }
        }
    }
    JOINT LeftUpLeg
    {
        OFFSET 17.704014 0.000000 0.000000
        CHANNELS 3 Zrotation Xrotation Yrotation
        JOINT LeftLeg
        {
            OFFSET -0.000000 -81.181816 0.000000
            CHANNELS 3 Zrotation Xrotation Yrotation
            JOINT LeftFoot
            {
                OFFSET -0.000000 -62.821102 0.000000
                CHANNELS 3 Zrotation Xrotation Yrotation
                JOINT LeftToeBase
                {
                    OFFSET -0.000000 -11.507608 26.556021
                    CHANNELS 3 Zrotation Xrotation Yrotation
                    End Site
                    {
                        OFFSET -0.000000 0.000000 7.081605
                    }
                }
            }
        }
    }
    JOINT RightUpLeg
    {
        OFFSET -17.704014 0.000000 0.000000
        CHANNELS 3 Zrotation Xrotation Yrotation
        JOINT RightLeg
        {
            OFFSET -0.000000 -81.181816 0.000000
            CHANNELS 3 Zrotation Xrotation Yrotation
            JOINT RightFoot
            {
                OFFSET -0.000000 -62.821102 0.000000
                CHANNELS 3 Zrotation Xrotation Yrotation
                JOINT RightToeBase
                {
                    OFFSET -0.000000 -11.507608 26.556021
                    CHANNELS 3 Zrotation Xrotation Yrotation
                    End Site
                    {
                        OFFSET -0.000000 0.000000 7.081605
                    }
                }
            }
        }
    }
}
MOTION
Frames:    5
Frame Time:    0.008333
-20.130646    163.439117    -76.786232    -7.983178    -24.696896    44.430630    3.964586    5.786658    -3.773908    4.100884    8.291792    -1.486592    18.717632    0.765051    -5.342323    5.065925    -2.481348    -7.413020    10.565026    8.071769    -21.000595    -25.337633    23.458557    -55.628441    -12.205584    -21.869446    -52.863304    -9.835681    -25.947840    -18.815498    12.966911    7.660370    -10.088393    32.746353    16.819803    17.358232    -12.404467    4.551075    34.699806    -24.202030    1.497475    31.555199    26.818121    1.059084    4.830091    -5.154472    38.537666    -17.244677    8.738043    -23.261904    34.897785    0.000000    0.000000    0.000000    -85.582924    -43.066139    -51.868080    9.116154    16.802773    -8.453901    19.220287    9.846572    -34.006199    0.000000    0.000000    0.000000    
-20.146175    163.470245    -76.788567    -8.014681    -24.690016    44.402985    3.988603    5.818309    -3.766704    4.093932    8.272720    -1.482235    18.677160    0.754443    -5.340281    5.124034    -2.527168    -7.395282    10.544522    8.001471    -20.966909    -25.567158    23.105541    -56.004101    -11.262580    -22.661520    -54.167336    -10.063027    -26.405796    -18.754257    12.955462    7.662201    -10.091992    32.754246    16.806505    17.364779    -12.391024    4.561473    34.714905    -24.209358    1.502226    31.559793    26.834978    1.040358    4.819760    -5.168067    38.526257    -17.248339    8.719547    -23.215549    34.924995    0.000000    0.000000    0.000000    -85.538399    -43.074314    -51.716728    9.158100    16.733549    -8.594435    19.198044    9.805903    -34.042282    0.000000    0.000000    0.000000    
-20.165274    163.494141    -76.794991    -8.053690    -24.659422    44.376862    3.996908    5.832615    -3.765699    4.093540    8.249241    -1.480772    18.654438    0.752031    -5.329133    5.153372    -2.579798    -7.373647    10.525007    7.951842    -20.933872    -25.804045    22.753122    -56.390804    -10.279369    -23.493000    -55.459766    -10.380880    -26.849161    -18.693554    12.956935    7.682056    -10.082859    32.748829    16.828161    17.364988    -12.426913    4.528409    34.728104    -24.183540    1.491010    31.554007    26.838198    0.996187    4.797479    -5.197634    38.513885    -17.227365    8.713805    -23.167068    34.945553    0.000000    0.000000    0.000000    -85.572052    -43.108974    -51.939930    9.092511    16.809153    -8.182279    19.255798    9.655055    -34.286938    0.000000    0.000000    0.000000    
-20.188829    163.522751    -76.806297    -8.101578    -24.628180    44.347950    4.021891    5.842353    -3.766702    4.072962    8.228350    -1.478310    18.642941    0.738633    -5.311689    5.178172    -2.621255    -7.350157    10.522800    7.897948    -20.896147    -25.808075    22.654804    -56.885109    -9.097380    -24.665298    -56.770832    -10.595304    -27.519878    -18.709990    12.955227    7.689522    -10.068858    32.760269    16.794338    17.362606    -12.409491    4.545876    34.743896    -24.188562    1.501813    31.561022    26.847748    0.942046    4.785265    -5.226363    38.503502    -17.205734    8.691071    -23.121237    34.973038    0.000000    0.000000    0.000000    -85.573288    -43.127590    -52.007477    9.071249    16.780254    -8.391728    19.215040    9.741536    -34.119610    0.000000    0.000000    0.000000    
-20.209074    163.550735    -76.813675    -8.145124    -24.604021    44.320080    4.052358    5.863652    -3.767345    4.042955    8.200157    -1.474637    18.662617    0.715757    -5.289931    5.168258    -2.642408    -7.334888    10.529003    7.831417    -20.879808    -26.087532    22.256186    -57.282871    -8.225750    -25.471531    -57.974468    -10.948969    -27.930164    -18.770544    12.974652    7.700699    -10.055934    32.754406    16.835596    17.347189    -12.457847    4.502739    34.751228    -24.147896    1.487352    31.558861    26.864933    0.908315    4.761909    -5.275080    38.471352    -17.178707    8.680006    -23.075375    35.000080    0.000000    0.000000    0.000000    -85.568169    -43.136944    -52.037579    9.075666    16.746243    -8.534093    19.183008    9.774457    -34.019238    0.000000    0.000000    0.000000    
